<svg xmlns:xlink="http://www.w3.org/1999/xlink">
	<symbol
		id="linkedin"
		xmlns="http://www.w3.org/2000/svg"
		viewBox="0 0 24 24"
		fill="currentColor"
	>
		<path d="M20 0a4 4 0 0 1 4 4v16a4 4 0 0 1-4 4H4a4 4 0 0 1-4-4V4a4 4 0 0 1 4-4h16zM8.95 9.4H6.16v8.1h2.8V9.4zm6.84-.19c-1.32 0-2 .63-2.38 1.16l-.13.18V9.4h-2.79l.01.49V17.5h2.78v-4.52a1.52 1.52 0 0 1 1.52-1.64c.96 0 1.37.66 1.41 1.66v4.5H19v-4.64c0-2.49-1.37-3.65-3.2-3.65zM7.58 5.5C6.62 5.5 6 6.1 6 6.9c0 .73.54 1.32 1.38 1.4h.18c.97 0 1.57-.62 1.57-1.4-.01-.8-.6-1.4-1.55-1.4z"/>
	</symbol>
	<symbol
		id="twitter"
		xmlns="http://www.w3.org/2000/svg"
		viewBox="0 0 24 24"
		fill="currentColor"
	>
		<path d="M20 0a4 4 0 0 1 4 4v16a4 4 0 0 1-4 4H4a4 4 0 0 1-4-4V4a4 4 0 0 1 4-4h16zm-4.42 5.8a3.28 3.28 0 0 0-3.2 4.03A9.32 9.32 0 0 1 5.61 6.4a3.26 3.26 0 0 0 1.02 4.38 3.27 3.27 0 0 1-1.49-.4v.03a3.28 3.28 0 0 0 2.64 3.22 3.3 3.3 0 0 1-1.49.06 3.29 3.29 0 0 0 3.07 2.28 6.59 6.59 0 0 1-4.86 1.36 9.29 9.29 0 0 0 5.03 1.47c6.04 0 9.34-5 9.34-9.34v-.42a6.65 6.65 0 0 0 1.63-1.7c-.59.26-1.22.44-1.89.52.68-.41 1.2-1.05 1.45-1.82-.64.38-1.34.65-2.09.8a3.28 3.28 0 0 0-2.4-1.04z"/>
	</symbol>
	<symbol
		id="facebook"
		xmlns="http://www.w3.org/2000/svg"
		viewBox="0 0 24 24"
		fill="currentColor"
	>
		<path d="M20 0a4 4 0 0 1 4 4v16a4 4 0 0 1-4 4H4a4 4 0 0 1-4-4V4a4 4 0 0 1 4-4h16zm-4 7.28V4.5h-2.29c-2.1 0-3.42 1.6-3.42 3.89v1.67H8v2.77h2.29v6.67h2.85v-6.67h2.29l.57-2.77h-2.86V8.94c0-1.1.58-1.66 1.72-1.66H16z"/>
	</symbol>
	<symbol
		id="close"
		xmlns="http://www.w3.org/2000/svg"
		viewBox="0 0 24 24"
		fill="none"
		stroke="currentColor"
		stroke-width="2"
		stroke-linecap="round"
		stroke-linejoin="round"
	>
		<line x1="18" y1="6" x2="6" y2="18"></line>
		<line x1="6" y1="6" x2="18" y2="18"></line>
	</symbol>
	<symbol
		id="burger"
		xmlns="http://www.w3.org/2000/svg"
		viewBox="0 0 24 24"
		fill="none"
		stroke="currentColor"
		stroke-width="2"
		stroke-linecap="round"
		stroke-linejoin="round"
	>
		<line x1="3" y1="12" x2="21" y2="12"></line>
		<line x1="3" y1="6" x2="21" y2="6"></line>
		<line x1="3" y1="18" x2="21" y2="18"></line>
	</symbol>
	<symbol
		id="arrow-right"
		xmlns="http://www.w3.org/2000/svg"
		viewBox="0 0 24 24"
		fill="none"
		stroke="currentColor"
		stroke-width="2"
		stroke-linecap="round"
		stroke-linejoin="round"
	>
		<path d="M5 12h13M12 5l7 7-7 7" />
	</symbol>
	<svg
		id="arrow-left"
		xmlns="http://www.w3.org/2000/svg"
		viewBox="0 0 24 24"
		fill="none"
		stroke="currentColor"
		stroke-width="2"
		stroke-linecap="round"
		stroke-linejoin="round"
	>
		<path d="M19 12H6M12 5l-7 7 7 7" />
	</svg>
	<svg
		id="arrow-up"
		xmlns="http://www.w3.org/2000/svg"
		viewBox="0 0 24 24"
		fill="none"
		stroke="currentColor"
		stroke-width="2"
		stroke-linecap="round"
		stroke-linejoin="round"
	>
		<path d="M12 19V6M5 12l7-7 7 7"/>
	</svg>
	<svg
		id="arrow-down"
		xmlns="http://www.w3.org/2000/svg"
		viewBox="0 0 24 24"
		fill="none"
		stroke="currentColor"
		stroke-width="2"
		stroke-linecap="round"
		stroke-linejoin="round"
	>
		<path d="M12 5v13M5 12l7 7 7-7" />
	</svg>
</svg>
